<svg xmlns="http://www.w3.org/2000/svg" width="51.611" height="32.356" viewBox="0 0 51.611 32.356">
  <path id="Icon_awesome-behance" data-name="Icon awesome-behance" d="M20.788,19.8a6.8,6.8,0,0,0,4.337-6.631c0-6.326-4.713-7.867-10.152-7.867H0V37.057H15.394c5.77,0,11.191-2.769,11.191-9.22,0-3.987-1.891-6.935-5.8-8.037ZM6.98,10.723h6.55c2.518,0,4.785.708,4.785,3.629,0,2.7-1.765,3.781-4.256,3.781H6.98v-7.41Zm7.464,20.94H6.98V22.917h7.607c3.073,0,5.018,1.281,5.018,4.534,0,3.208-2.321,4.211-5.161,4.211ZM46.567,10.1H33.691V6.968H46.567V10.1Zm5.045,15.8c0-6.8-3.978-12.473-11.191-12.473-7.007,0-11.765,5.269-11.765,12.168,0,7.159,4.507,12.07,11.765,12.07,5.493,0,9.05-2.473,10.761-7.733H45.608c-.6,1.962-3.073,3-4.991,3-3.7,0-5.645-2.168-5.645-5.851H51.558C51.584,26.7,51.611,26.3,51.611,25.892Zm-16.63-2.8a4.935,4.935,0,0,1,5.242-4.91c3.172,0,4.767,1.864,5.036,4.91Z" transform="translate(0 -5.302)" fill="#fff"/>
</svg>
