<svg id="cv-file-interface-symbol" xmlns="http://www.w3.org/2000/svg" width="25.395" height="32.974" viewBox="0 0 25.395 32.974">
  <g id="_x35_8_24_" transform="translate(0)">
    <g id="Group_2" data-name="Group 2">
      <path id="Path_5" data-name="Path 5" d="M18.082,23.785a1.116,1.116,0,0,1-.193.333.821.821,0,0,1-.29.22.994.994,0,0,1-.417.078,1.026,1.026,0,0,1-.571-.149,1.1,1.1,0,0,1-.364-.4,1.907,1.907,0,0,1-.2-.553,3.2,3.2,0,0,1,0-1.248,1.891,1.891,0,0,1,.2-.553,1.1,1.1,0,0,1,.364-.4,1.016,1.016,0,0,1,.571-.149.94.94,0,0,1,.487.113,1.089,1.089,0,0,1,.3.264.914.914,0,0,1,.158.3c.029.1.05.183.061.242h1.879a2.759,2.759,0,0,0-.831-1.831,2.9,2.9,0,0,0-2.006-.655,3.446,3.446,0,0,0-1.313.237,2.879,2.879,0,0,0-1,.667,2.917,2.917,0,0,0-.641,1.036,3.851,3.851,0,0,0-.225,1.344,3.909,3.909,0,0,0,.211,1.3,2.877,2.877,0,0,0,1.616,1.735,3.4,3.4,0,0,0,1.353.255,3.1,3.1,0,0,0,1.221-.228,2.759,2.759,0,0,0,.9-.6,2.589,2.589,0,0,0,.553-.839,2.476,2.476,0,0,0,.19-.939H18.2A2.371,2.371,0,0,1,18.082,23.785Z" transform="translate(-7.559 -5.205)" fill="#fff"/>
      <path id="Path_6" data-name="Path 6" d="M25.523,23.419h-.018l-1.028-3.8h-1.95l1.871,6.27h2.16l1.959-6.27H26.533Z" transform="translate(-9.831 -5.26)" fill="#fff"/>
      <path id="Path_7" data-name="Path 7" d="M25.855,0H5.179V32.974H30.573V4.575Zm2.523,30.778h-21V2.2H24.723V5.679h3.653v25.1Z" transform="translate(-5.179)" fill="#fff"/>
    </g>
  </g>
</svg>
