<svg xmlns="http://www.w3.org/2000/svg" width="32.652" height="32.652" viewBox="0 0 32.652 32.652">
  <path id="Icon_awesome-dribbble" data-name="Icon awesome-dribbble" d="M16.889.562A16.326,16.326,0,1,0,33.215,16.889,16.345,16.345,0,0,0,16.889.562ZM27.683,8.091a13.879,13.879,0,0,1,3.149,8.687,32.589,32.589,0,0,0-9.71-.449c-.379-.924-.736-1.737-1.226-2.74A18.576,18.576,0,0,0,27.683,8.091Zm-1.55-1.613c-.251.357-2.35,3.179-7.309,5.037a74.436,74.436,0,0,0-5.2-8.164A13.909,13.909,0,0,1,26.133,6.479ZM10.96,4.29a88.979,88.979,0,0,1,5.17,8.065,52.015,52.015,0,0,1-12.892,1.7A14,14,0,0,1,10.96,4.29ZM2.944,16.91c0-.143,0-.285.007-.426A51.44,51.44,0,0,0,17.283,14.5c.4.781.781,1.574,1.131,2.367A21.6,21.6,0,0,0,6.529,26.234,13.889,13.889,0,0,1,2.944,16.91Zm5.385,11c1.457-2.978,5.41-6.822,11.032-8.739a57.966,57.966,0,0,1,2.975,10.575A13.917,13.917,0,0,1,8.329,27.911Zm16.351.559a60.188,60.188,0,0,0-2.709-9.943,20.468,20.468,0,0,1,8.686.6A13.969,13.969,0,0,1,24.68,28.47Z" transform="translate(-0.563 -0.563)" fill="#fff"/>
</svg>
