<svg xmlns="http://www.w3.org/2000/svg" width="32.544" height="32.537" viewBox="0 0 32.544 32.537">
  <path id="Icon_awesome-instagram" data-name="Icon awesome-instagram" d="M16.27,10.164a8.342,8.342,0,1,0,8.342,8.342A8.329,8.329,0,0,0,16.27,10.164Zm0,13.765a5.423,5.423,0,1,1,5.423-5.423,5.433,5.433,0,0,1-5.423,5.423ZM26.9,9.823a1.946,1.946,0,1,1-1.946-1.946A1.941,1.941,0,0,1,26.9,9.823ZM32.424,11.8A9.629,9.629,0,0,0,29.8,4.98a9.692,9.692,0,0,0-6.817-2.628c-2.686-.152-10.738-.152-13.424,0A9.678,9.678,0,0,0,2.737,4.973,9.661,9.661,0,0,0,.109,11.79c-.152,2.686-.152,10.738,0,13.424a9.629,9.629,0,0,0,2.628,6.817A9.7,9.7,0,0,0,9.555,34.66c2.686.152,10.738.152,13.424,0A9.629,9.629,0,0,0,29.8,32.032a9.692,9.692,0,0,0,2.628-6.817c.152-2.686.152-10.731,0-13.417Zm-3.47,16.3a5.491,5.491,0,0,1-3.093,3.093c-2.142.849-7.224.653-9.591.653s-7.456.189-9.591-.653A5.491,5.491,0,0,1,3.587,28.1c-.849-2.142-.653-7.224-.653-9.591s-.189-7.456.653-9.591A5.491,5.491,0,0,1,6.68,5.822c2.142-.849,7.224-.653,9.591-.653s7.456-.189,9.591.653a5.491,5.491,0,0,1,3.093,3.093c.849,2.142.653,7.224.653,9.591S29.8,25.962,28.954,28.1Z" transform="translate(0.005 -2.238)" fill="#fff"/>
</svg>
