<svg xmlns="http://www.w3.org/2000/svg" width="32.496" height="32.495" viewBox="0 0 32.496 32.495">
  <path id="Icon_awesome-linkedin-in" data-name="Icon awesome-linkedin-in" d="M7.274,32.5H.537V10.8H7.274ZM3.9,7.841A3.92,3.92,0,1,1,7.8,3.9,3.935,3.935,0,0,1,3.9,7.841ZM32.489,32.5H25.766V21.935c0-2.517-.051-5.745-3.5-5.745-3.5,0-4.04,2.735-4.04,5.564V32.5h-6.73V10.8h6.462V13.76h.094a7.079,7.079,0,0,1,6.374-3.5c6.818,0,8.072,4.49,8.072,10.322V32.5Z" transform="translate(0 -0.001)" fill="#fff"/>
</svg>
