<svg id="_002-prototyping" data-name="002-prototyping" xmlns="http://www.w3.org/2000/svg" width="52.005" height="52.011" viewBox="0 0 52.005 52.011">
  <path id="Path_14" data-name="Path 14" d="M65.358,218.436h5.174a.762.762,0,1,0,0-1.524H65.358a.762.762,0,1,0,0,1.524Z" transform="translate(-58.037 -194.877)" fill="#fff"/>
  <path id="Path_15" data-name="Path 15" d="M51.275,21.587a.762.762,0,0,0,.762-.762V3.809A3.814,3.814,0,0,0,48.227,0H41.377a.762.762,0,1,0,0,1.524h6.851a2.288,2.288,0,0,1,2.286,2.286v2H33.86v-2a2.288,2.288,0,0,1,2.286-2.286h1.676a.762.762,0,1,0,0-1.524H36.145a3.814,3.814,0,0,0-3.809,3.809v11.53h-1.27a5.848,5.848,0,0,0-5.841,5.841v9.346a4.322,4.322,0,0,1-4.317,4.317h-.972V23.11A3.814,3.814,0,0,0,16.127,19.3H3.841A3.814,3.814,0,0,0,.032,23.11V48.2a3.814,3.814,0,0,0,3.809,3.809H4.4a.762.762,0,1,0,0-1.524H3.841A2.288,2.288,0,0,1,1.556,48.2V46.948H18.412V48.2a2.288,2.288,0,0,1-2.286,2.286H7.956a.762.762,0,1,0,0,1.524h8.171A3.814,3.814,0,0,0,19.936,48.2V36.367h.972a5.848,5.848,0,0,0,5.841-5.841V21.18a4.322,4.322,0,0,1,4.317-4.317h1.27V29.1a3.814,3.814,0,0,0,3.809,3.809H48.227A3.814,3.814,0,0,0,52.037,29.1V24.38a.762.762,0,0,0-1.524,0v1.914H33.86V16.863H40.3l-1.391,1.391a.762.762,0,0,0,1.077,1.077l2.692-2.692a.768.768,0,0,0,0-1.077L39.985,12.87a.762.762,0,0,0-1.077,1.077L40.3,15.339H33.86V7.333H50.513V20.825A.762.762,0,0,0,51.275,21.587ZM3.841,20.825H16.127a2.288,2.288,0,0,1,2.286,2.286v1.962H1.556V23.11A2.288,2.288,0,0,1,3.841,20.825Zm14.571,24.6H1.556V26.6H18.412v8.247h-4A2.391,2.391,0,0,0,12.07,32.9h-.254a.762.762,0,1,0,0,1.524h.254a.864.864,0,0,1,.863.863v.629a.864.864,0,0,1-.863.863H7.8a.864.864,0,0,1-.863-.863v-.629a.864.864,0,0,1,.863-.863h.49a.762.762,0,1,0,0-1.524H7.8a2.39,2.39,0,0,0-2.387,2.387v.629A2.39,2.39,0,0,0,7.8,38.307H12.07a2.391,2.391,0,0,0,2.345-1.94h4Zm32.1-17.607V29.1a2.288,2.288,0,0,1-2.286,2.286H36.145A2.288,2.288,0,0,1,33.86,29.1V27.818Z" transform="translate(-0.032)" fill="#fff"/>
  <path id="Path_16" data-name="Path 16" d="M382.645,28.612h5.116a.762.762,0,1,0,0-1.524h-5.116a.762.762,0,1,0,0,1.524Z" transform="translate(-343.093 -24.336)" fill="#fff"/>
</svg>
