<svg xmlns="http://www.w3.org/2000/svg" width="79.57" height="33.652" viewBox="0 0 79.57 33.652">
  <path id="Path_513" data-name="Path 513" d="M25.1-5.734H12.6L10.387,0H-.893L13.489-32.9h10.9L38.775,0H27.307Zm-3.055-7.99L18.847-22l-3.2,8.272ZM49.585.752A18.707,18.707,0,0,1,42.605-.494a12.789,12.789,0,0,1-5.146-3.643l5.969-7.05a10.857,10.857,0,0,0,2.585,2.444,4.873,4.873,0,0,0,2.632.8A3.362,3.362,0,0,0,51.3-8.977a4.478,4.478,0,0,0,.917-3.055v-12.5H41.031V-32.9H63.168v20.21q0,6.721-3.454,10.082T49.585.752ZM72.474.47a6.109,6.109,0,0,1-4.441-1.716A5.866,5.866,0,0,1,66.27-5.64a5.714,5.714,0,0,1,1.762-4.347,6.2,6.2,0,0,1,4.441-1.668,6.2,6.2,0,0,1,4.442,1.668A5.714,5.714,0,0,1,78.678-5.64a5.866,5.866,0,0,1-1.762,4.395A6.109,6.109,0,0,1,72.474.47Z" transform="translate(0.893 32.9)" fill="#fff"/>
</svg>
